# xmcd CD database file
#
# Track frame offsets:
#	150
#	14380
#	25834
#	42897
#	49788
#	65824
#	82676
#	95411
#	109266
#	131224
#	146332
#	159517
#	174134
#	185210
#	209585
#	223771
#	244733
#	258040
#	270008
#	290986
#	307384
#	324215
#
# Disc length: 4536 seconds
#
# Revision: 2
# Processed by: cddbd v1.5.1PL0 Copyright (c) Steve Scherf et al.
# Submitted via: CDex 1.50Beta6
#
DISCID=4111b616
DTITLE=Иосиф Кобзон - Золотой век русской эстрады
DYEAR=1900
DGENRE=Country
TTITLE0=Летят перелетные птицы
TTITLE1=Брянская улица
TTITLE2=Россия
TTITLE3=Запрягу я тройку
TTITLE4=Ой мороз, мороз
TTITLE5=Враги сожли родную хату
TTITLE6=Осенние листья
TTITLE7=Дремлют плакучие ивы
TTITLE8=Бери шинель
TTITLE9=Казачья
TTITLE10=Поет зима, аукает
TTITLE11=Нежность
TTITLE12=Вечер на дворе
TTITLE13=Любо, братцы, любо
TTITLE14=Москва златоглавая
TTITLE15=Даль великая
TTITLE16=Старый вальсок
TTITLE17=Лучше нету того цвета
TTITLE18=Двенадцать разбоцников
TTITLE19=Одна единая
TTITLE20=Тени минувшего
TTITLE21=Московский вальс
EXTD=
EXTT0=
EXTT1=
EXTT2=
EXTT3=
EXTT4=
EXTT5=
EXTT6=
EXTT7=
EXTT8=
EXTT9=
EXTT10=
EXTT11=
EXTT12=
EXTT13=
EXTT14=
EXTT15=
EXTT16=
EXTT17=
EXTT18=
EXTT19=
EXTT20=
EXTT21=
PLAYORDER=
